<svg width="29" height="28" viewBox="0 0 29 28" fill="none" xmlns="http://www.w3.org/2000/svg">
<path fill-rule="evenodd" clip-rule="evenodd" d="M8.59145 0.3325C10.0704 0.265 10.5419 0.25 14.3091 0.25C18.0764 0.25 18.5479 0.26625 20.0256 0.3325C21.5032 0.39875 22.5118 0.6325 23.3944 0.97125C24.3186 1.3175 25.157 1.85875 25.8504 2.55875C26.5565 3.245 27.1011 4.075 27.4491 4.9925C27.792 5.8675 28.0265 6.8675 28.0946 8.33C28.1627 9.79875 28.1778 10.2662 28.1778 14C28.1778 17.735 28.1614 18.2025 28.0946 19.6687C28.0278 21.1312 27.792 22.1312 27.4491 23.0062C27.1011 23.9239 26.5556 24.7552 25.8504 25.4425C25.157 26.1425 24.3186 26.6825 23.3944 27.0275C22.5118 27.3675 21.5032 27.6 20.0281 27.6675C18.5479 27.735 18.0764 27.75 14.3091 27.75C10.5419 27.75 10.0704 27.7337 8.59145 27.6675C7.11632 27.6012 6.10769 27.3675 5.22513 27.0275C4.29961 26.6825 3.46106 26.1416 2.76785 25.4425C2.06229 24.7558 1.51628 23.9249 1.16791 23.0075C0.826232 22.1325 0.591725 21.1325 0.523642 19.67C0.455559 18.2012 0.44043 17.7337 0.44043 14C0.44043 10.265 0.45682 9.7975 0.523642 8.3325C0.590464 6.8675 0.826232 5.8675 1.16791 4.9925C1.5168 4.0751 2.06322 3.24414 2.76911 2.5575C3.46134 1.85813 4.29905 1.3168 5.22387 0.97125C6.10643 0.6325 7.11506 0.4 8.59019 0.3325H8.59145ZM19.9134 2.8075C18.4508 2.74125 18.0121 2.7275 14.3091 2.7275C10.6062 2.7275 10.1674 2.74125 8.70492 2.8075C7.35209 2.86875 6.61831 3.0925 6.12912 3.28125C5.48233 3.53125 5.01962 3.8275 4.53422 4.30875C4.07409 4.75256 3.71998 5.29285 3.49785 5.89C3.30747 6.375 3.08179 7.1025 3.02001 8.44375C2.95319 9.89375 2.93932 10.3287 2.93932 14C2.93932 17.6712 2.95319 18.1062 3.02001 19.5562C3.08179 20.8975 3.30747 21.625 3.49785 22.11C3.71975 22.7062 4.07403 23.2475 4.53422 23.6912C4.9818 24.1475 5.52772 24.4987 6.12912 24.7187C6.61831 24.9075 7.35209 25.1312 8.70492 25.1925C10.1674 25.2587 10.6049 25.2725 14.3091 25.2725C18.0133 25.2725 18.4508 25.2587 19.9134 25.1925C21.2662 25.1312 22 24.9075 22.4891 24.7187C23.1359 24.4687 23.5986 24.1725 24.084 23.6912C24.5442 23.2475 24.8985 22.7062 25.1204 22.11C25.3108 21.625 25.5365 20.8975 25.5983 19.5562C25.6651 18.1062 25.6789 17.6712 25.6789 14C25.6789 10.3287 25.6651 9.89375 25.5983 8.44375C25.5365 7.1025 25.3108 6.375 25.1204 5.89C24.8683 5.24875 24.5695 4.79 24.084 4.30875C23.6364 3.85259 23.0914 3.50151 22.4891 3.28125C22 3.0925 21.2662 2.86875 19.9134 2.8075ZM12.5377 18.2387C13.527 18.647 14.6286 18.7021 15.6543 18.3946C16.68 18.0872 17.5663 17.4361 18.1616 16.5528C18.757 15.6695 19.0246 14.6086 18.9186 13.5514C18.8127 12.4942 18.3399 11.5062 17.5809 10.7562C17.097 10.2768 16.512 9.90976 15.8679 9.68143C15.2238 9.4531 14.5366 9.3692 13.8559 9.43577C13.1751 9.50234 12.5177 9.71772 11.931 10.0664C11.3443 10.4151 10.8429 10.8884 10.4628 11.4523C10.0828 12.0162 9.83356 12.6566 9.73311 13.3274C9.63266 13.9983 9.68348 14.6829 9.88192 15.3319C10.0803 15.9809 10.4215 16.5783 10.8807 17.0809C11.3399 17.5835 11.9058 17.979 12.5377 18.2387ZM9.26849 9.0025C9.93044 8.34622 10.7163 7.82563 11.5812 7.47045C12.446 7.11527 13.373 6.93247 14.3091 6.93247C15.2453 6.93247 16.1722 7.11527 17.0371 7.47045C17.902 7.82563 18.6878 8.34622 19.3498 9.0025C20.0117 9.65878 20.5368 10.4379 20.8951 11.2954C21.2533 12.1528 21.4377 13.0719 21.4377 14C21.4377 14.9281 21.2533 15.8472 20.8951 16.7046C20.5368 17.5621 20.0117 18.3412 19.3498 18.9975C18.0129 20.3229 16.1997 21.0675 14.3091 21.0675C12.4185 21.0675 10.6054 20.3229 9.26849 18.9975C7.93163 17.6721 7.18059 15.8744 7.18059 14C7.18059 12.1256 7.93163 10.3279 9.26849 9.0025ZM23.0187 7.985C23.1827 7.83159 23.314 7.6471 23.4049 7.44247C23.4957 7.23783 23.5442 7.01721 23.5475 6.79366C23.5508 6.57011 23.5088 6.34818 23.424 6.14101C23.3392 5.93384 23.2134 5.74564 23.0539 5.58755C22.8945 5.42946 22.7047 5.3047 22.4957 5.22065C22.2867 5.1366 22.0629 5.09497 21.8374 5.09823C21.6119 5.10149 21.3894 5.14957 21.183 5.23962C20.9766 5.32967 20.7905 5.45987 20.6358 5.6225C20.3348 5.93879 20.1701 6.3589 20.1765 6.79366C20.1829 7.22842 20.3599 7.6436 20.67 7.95105C20.9801 8.25851 21.3989 8.43404 21.8374 8.44037C22.2759 8.44671 22.6997 8.28336 23.0187 7.985Z" fill="black"/>
</svg>
