<svg width="17" height="11" viewBox="0 0 17 11" fill="none" xmlns="http://www.w3.org/2000/svg">
<path fill-rule="evenodd" clip-rule="evenodd" d="M16.4508 1.6118C16.5667 1.22551 16.4508 0.941589 15.8993 0.941589H14.076C13.6124 0.941589 13.3988 1.18683 13.2828 1.45733C13.2828 1.45733 12.3555 3.71737 11.042 5.18542C10.617 5.61039 10.4238 5.74545 10.192 5.74545C10.0761 5.74545 9.90836 5.61039 9.90836 5.2241V1.6118C9.90836 1.14815 9.77383 0.941589 9.38741 0.941589H6.52215C6.2325 0.941589 6.05824 1.15674 6.05824 1.3607C6.05824 1.80025 6.71491 1.90158 6.78263 3.1378V5.82294C6.78263 6.41162 6.67636 6.51841 6.44453 6.51841C5.82642 6.51841 4.32294 4.24809 3.43107 1.65048C3.25629 1.14554 3.08099 0.941589 2.61499 0.941589H0.79165C0.270695 0.941589 0.166504 1.18683 0.166504 1.45733C0.166504 1.94026 0.784747 4.33561 3.04478 7.50354C4.55164 9.6668 6.67427 10.8397 8.60598 10.8397C9.7651 10.8397 9.90836 10.5793 9.90836 10.1306V8.49544C9.90836 7.97448 10.0182 7.87055 10.385 7.87055C10.6557 7.87055 11.1192 8.00574 12.2011 9.04882C13.4373 10.2849 13.641 10.8397 14.3365 10.8397H16.1598C16.6808 10.8397 16.9413 10.5793 16.791 10.0652C16.6266 9.55284 16.0364 8.8097 15.2531 7.92851C14.8281 7.42618 14.1906 6.88529 13.9976 6.61492C13.7271 6.26718 13.8043 6.11272 13.9976 5.80379C13.9976 5.80379 16.219 2.67442 16.4508 1.61193V1.6118Z" fill="#555555"/>
</svg>
